<?xml version="1.0" encoding="UTF-8"?>
<svg id="Layer_2" data-name="Layer 2" xmlns="http://www.w3.org/2000/svg" viewBox="0 0 253.63 177.55">
  <defs>
    <style>
      .cls-1 {
        fill: #fff;
        stroke-width: 0px;
      }
    </style>
  </defs>
  <g id="Layer_2-2" data-name="Layer 2">
    <g id="Layer_1-2" data-name="Layer 1-2">
      <path class="cls-1" d="M248.35,27.73c-2.92-10.92-11.5-19.5-22.42-22.42C206.14,0,126.82,0,126.82,0c0,0-79.32,0-99.09,5.3-10.92,2.92-19.5,11.5-22.42,22.42C0,47.5,0,88.78,0,88.78c0,0,0,41.28,5.3,61.05,2.92,10.92,11.5,19.5,22.42,22.42,19.77,5.3,99.09,5.3,99.09,5.3,0,0,79.32,0,99.09-5.3,10.92-2.92,19.5-11.5,22.42-22.42,5.3-19.77,5.3-61.05,5.3-61.05,0,0,0-41.28-5.3-61.05h.02ZM101.45,126.82V50.74l65.89,38.04s-65.89,38.04-65.89,38.04Z"/>
    </g>
  </g>
</svg>